<?xml version="1.0" standalone="no"?><svg xmlns="http://www.w3.org/2000/svg" viewBox="0 0 1440 320"><path fill="#ffe0a3" fill-opacity="1" d="M0,224L13.3,229.3C26.7,235,53,245,80,245.3C106.7,245,133,235,160,192C186.7,149,213,75,240,69.3C266.7,64,293,128,320,144C346.7,160,373,128,400,106.7C426.7,85,453,75,480,96C506.7,117,533,171,560,192C586.7,213,613,203,640,186.7C666.7,171,693,149,720,128C746.7,107,773,85,800,85.3C826.7,85,853,107,880,138.7C906.7,171,933,213,960,240C986.7,267,1013,277,1040,245.3C1066.7,213,1093,139,1120,133.3C1146.7,128,1173,192,1200,192C1226.7,192,1253,128,1280,106.7C1306.7,85,1333,107,1360,122.7C1386.7,139,1413,149,1427,154.7L1440,160L1440,320L1426.7,320C1413.3,320,1387,320,1360,320C1333.3,320,1307,320,1280,320C1253.3,320,1227,320,1200,320C1173.3,320,1147,320,1120,320C1093.3,320,1067,320,1040,320C1013.3,320,987,320,960,320C933.3,320,907,320,880,320C853.3,320,827,320,800,320C773.3,320,747,320,720,320C693.3,320,667,320,640,320C613.3,320,587,320,560,320C533.3,320,507,320,480,320C453.3,320,427,320,400,320C373.3,320,347,320,320,320C293.3,320,267,320,240,320C213.3,320,187,320,160,320C133.3,320,107,320,80,320C53.3,320,27,320,13,320L0,320Z"></path></svg>