<?xml version="1.0" standalone="no"?><svg xmlns="http://www.w3.org/2000/svg" viewBox="0 0 1440 320"><path fill="#f1e5cf" fill-opacity="1" d="M0,32L30,53.3C60,75,120,117,180,149.3C240,181,300,203,360,181.3C420,160,480,96,540,64C600,32,660,32,720,48C780,64,840,96,900,96C960,96,1020,64,1080,74.7C1140,85,1200,139,1260,149.3C1320,160,1380,128,1410,112L1440,96L1440,320L1410,320C1380,320,1320,320,1260,320C1200,320,1140,320,1080,320C1020,320,960,320,900,320C840,320,780,320,720,320C660,320,600,320,540,320C480,320,420,320,360,320C300,320,240,320,180,320C120,320,60,320,30,320L0,320Z"></path></svg>